<svg xmlns="http://www.w3.org/2000/svg" width="30" height="30" viewBox="0 0 30 30">
  <path id="instagram" d="M14.928,39.133a7.692,7.692,0,1,0,7.69,7.692A7.679,7.679,0,0,0,14.928,39.133Zm0,12.692a5,5,0,1,1,5-5,5.009,5.009,0,0,1-5,5Zm9.8-13.007a1.794,1.794,0,1,1-1.794-1.794A1.79,1.79,0,0,1,24.726,38.819ZM29.82,40.64A8.879,8.879,0,0,0,27.4,34.354a8.934,8.934,0,0,0-6.284-2.423c-2.476-.141-9.9-.141-12.375,0a8.921,8.921,0,0,0-6.284,2.417A8.908,8.908,0,0,0,.03,40.633c-.141,2.477-.141,9.9,0,12.378A8.879,8.879,0,0,0,2.453,59.3,8.945,8.945,0,0,0,8.738,61.72c2.476.141,9.9.141,12.375,0A8.875,8.875,0,0,0,27.4,59.3,8.938,8.938,0,0,0,29.82,53.01c.141-2.477.141-9.894,0-12.371Zm-3.2,15.028a5.062,5.062,0,0,1-2.851,2.852c-1.974.783-6.659.6-8.841.6s-6.873.174-8.841-.6a5.062,5.062,0,0,1-2.851-2.852c-.783-1.975-.6-6.661-.6-8.843s-.174-6.875.6-8.843A5.062,5.062,0,0,1,6.087,35.13c1.974-.783,6.659-.6,8.841-.6s6.873-.174,8.841.6a5.062,5.062,0,0,1,2.851,2.852c.783,1.975.6,6.661.6,8.843S27.4,53.7,26.62,55.668Z" transform="translate(0.075 -31.825)" fill="#fff"/>
</svg>
